<svg version="1.1" id="Layer_1" xmlns="http://www.w3.org/2000/svg" xmlns:xlink="http://www.w3.org/1999/xlink" x="0px" y="0px"
	 width="100%" viewBox="0 0 496 496" enable-background="new 0 0 496 496" xml:space="preserve">
<path fill="#000000" opacity="1.000000" stroke="none" 
	d="
M201.260025,313.491760 
	C197.958466,308.333405 196.719147,303.166809 198.424606,297.493347 
	C198.936874,295.789246 198.720596,294.215729 197.334396,292.909637 
	C188.913071,284.975159 190.827881,272.617676 196.467163,265.064484 
	C196.757065,264.676147 196.913391,264.188080 197.122070,263.766296 
	C187.690979,253.523483 189.036469,239.778915 199.970581,231.872162 
	C197.157562,227.046814 192.152283,223.352295 192.560760,216.728149 
	C192.981903,209.898865 197.779922,206.746094 202.875977,203.323212 
	C199.090454,197.690323 198.941528,191.909714 200.724655,185.908798 
	C202.881790,178.649277 208.127747,175.028305 215.535675,176.896606 
	C220.743423,178.209991 222.619339,176.010284 223.469635,171.687607 
	C223.910156,169.448151 225.306885,167.898285 227.138931,167.283066 
	C232.287460,165.554092 236.259491,161.805939 241.078476,159.592728 
	C248.431595,156.215637 256.667236,155.765579 263.249634,159.516647 
	C269.603088,163.137253 276.052612,168.138031 278.908142,175.683685 
	C280.168854,179.015167 282.436249,180.729919 285.461456,182.012177 
	C288.216614,183.179993 289.367676,184.950058 289.902313,188.341202 
	C290.575806,192.612808 292.255035,196.743103 292.691284,201.238708 
	C293.275208,207.256195 292.593811,209.761658 286.702942,211.254395 
	C281.118469,212.669479 278.661957,215.673035 278.499908,221.205185 
	C278.427277,223.684052 277.921478,226.157379 277.518646,228.617905 
	C276.729004,233.441086 277.568085,237.661331 280.661133,241.729645 
	C287.718384,251.012161 294.249939,260.682343 300.308319,270.656769 
	C301.053253,271.883209 302.271332,272.995087 301.837738,274.752777 
	C299.992554,276.330383 298.372223,274.677429 296.765900,274.263672 
	C290.494110,272.648132 290.179932,272.861237 290.255981,279.189148 
	C290.303925,283.175110 290.699066,287.198822 289.482117,291.104431 
	C288.950073,292.812012 288.720703,294.758606 286.507935,295.309113 
	C284.281281,294.020721 285.621429,291.568146 284.649261,289.851807 
	C283.196228,289.336273 283.375610,291.743530 281.500000,291.243774 
	C279.545349,285.467651 283.072235,278.585022 278.635742,272.060394 
	C277.373535,279.626221 280.264435,286.878967 276.778687,293.543640 
	C274.436584,293.634888 272.415558,289.451599 270.035095,295.146759 
	C267.641205,285.389893 266.151398,277.391510 267.181183,269.294708 
	C267.783569,264.558044 271.740662,263.913055 276.916077,267.390747 
	C277.783356,265.071655 278.715881,262.849762 279.442932,260.562500 
	C280.278229,257.934692 278.556793,256.570770 276.598694,255.397903 
	C270.704407,251.867264 260.947479,253.290039 255.582230,259.321869 
	C251.704285,263.681671 246.556335,268.182709 251.555328,275.351715 
	C252.749207,277.063812 251.932556,280.222931 251.928345,282.716309 
	C251.918549,288.492920 253.592560,293.659882 258.015900,297.477936 
	C261.530304,300.511414 261.520233,304.756500 262.250366,308.520386 
	C264.379730,309.077820 264.374084,306.615417 266.194519,306.797546 
	C268.085785,310.478119 266.177368,315.272858 269.904846,320.137024 
	C270.475342,314.904510 269.022034,310.565338 271.175049,306.341736 
	C272.927490,307.361084 274.747345,306.962097 276.188965,305.646667 
	C279.600128,308.717316 279.077362,313.396118 282.062592,316.850403 
	C284.330688,312.020721 281.007263,307.691071 281.464905,302.744507 
	C285.015961,305.057861 285.303650,308.536102 286.519043,311.501587 
	C287.712830,314.414368 287.130920,317.786774 289.145538,321.031982 
	C291.386047,316.991760 290.768341,313.181732 289.832855,309.422607 
	C288.926941,305.782410 287.781586,302.201782 286.733124,298.566345 
	C288.955566,297.713043 289.252777,299.418152 289.820160,300.412109 
	C293.667084,307.151031 294.754639,314.463654 294.207275,322.110199 
	C294.089081,323.761353 293.899261,325.484344 294.228333,327.073700 
	C294.823547,329.948669 296.693268,330.862671 299.455627,329.631104 
	C300.922089,328.977295 301.848877,327.199890 304.196716,327.583679 
	C303.516479,333.280396 299.289825,335.352814 294.814056,337.097504 
	C287.297607,340.027466 279.379486,339.819336 271.612274,339.167175 
	C263.308441,338.470001 255.302307,336.160706 247.844925,332.169586 
	C244.053421,330.140442 241.659683,327.309357 240.838974,323.048676 
	C236.038559,298.127441 232.531982,273.160553 237.567291,247.807266 
	C237.887451,246.195175 237.830185,244.487885 237.785782,242.829239 
	C237.740524,241.138580 239.458313,240.428497 239.897095,238.568253 
	C234.748291,237.161652 228.690033,236.791046 226.951736,229.330582 
	C236.813202,236.653061 242.609726,236.418320 245.729843,229.083862 
	C237.515640,232.342056 232.104080,231.277390 227.281311,224.847778 
	C232.123886,226.047333 235.830933,231.064377 241.493576,226.980972 
	C234.321518,223.114639 226.192139,221.294342 222.762405,212.862122 
	C223.431534,221.238434 220.396500,227.215637 214.713394,231.910522 
	C223.253296,242.987930 218.319885,252.534271 212.298477,262.044861 
	C220.642731,271.154327 221.304626,276.190186 215.782410,288.967834 
	C225.966568,297.966461 227.203171,302.641052 222.674072,315.666077 
	C228.967880,320.278290 231.052170,326.023926 226.544098,333.200867 
	C225.604080,334.697418 226.925339,335.633392 227.635162,336.709229 
	C231.454132,342.497620 231.133911,350.442780 226.127670,357.647675 
	C225.504623,349.840820 217.340195,347.430389 216.471741,340.344910 
	C216.283630,338.810303 214.988678,338.296600 213.781845,337.667542 
	C206.552765,333.899323 203.448563,326.365112 206.040115,317.722992 
	C204.710464,316.570496 203.099945,315.174561 201.260025,313.491760 
M275.183441,281.050507 
	C274.234436,278.481567 274.265839,275.538605 271.805969,272.318054 
	C270.236481,278.635468 271.566772,283.719971 272.606384,289.663879 
	C275.475647,286.999146 275.307068,284.369995 275.183441,281.050507 
z"/>
<path fill="#000000" opacity="1.000000" stroke="none" 
	d="
M305.844666,149.320892 
	C303.644043,152.696671 301.305847,152.723892 298.343109,150.139420 
	C300.948425,145.035278 302.848572,139.765198 304.569519,134.395447 
	C307.754822,134.496490 310.371368,135.580536 312.772614,137.015366 
	C316.887512,139.474136 317.321289,142.716858 313.437378,145.604523 
	C309.642090,148.426300 312.744629,151.790771 311.882538,154.966476 
	C306.805054,156.313324 308.107605,151.092651 305.844666,149.320892 
z"/>
<path fill="#000000" opacity="1.000000" stroke="none" 
	d="
M139.978973,181.947037 
	C139.086960,185.623383 142.854889,186.166809 143.843079,188.823120 
	C143.577103,190.522003 142.382690,191.707672 140.623199,192.264786 
	C136.565460,188.207443 132.590469,184.232864 128.485764,180.128571 
	C128.695801,178.491074 129.931076,177.541016 131.559662,177.001785 
	C134.216705,177.383926 135.594162,182.748077 138.496872,179.755493 
	C141.601471,176.554764 135.878616,175.744324 135.401550,173.107101 
	C135.790985,171.421204 137.024872,170.397537 138.928894,169.414352 
	C142.634445,173.681122 146.405121,178.022873 150.175797,182.364624 
	C150.833878,183.496857 149.401047,184.473923 148.022781,185.048569 
	C144.741745,184.850006 144.499893,178.824982 139.978973,181.947037 
z"/>
<path fill="#000000" opacity="1.000000" stroke="none" 
	d="
M254.659515,274.064026 
	C254.969055,272.899109 255.149612,272.082550 255.474213,271.328003 
	C255.646378,270.927765 256.068634,270.635132 256.672150,269.969513 
	C258.363373,274.951385 256.997528,280.149872 259.895294,286.049347 
	C260.260223,279.831635 258.159546,274.634003 261.408203,269.980499 
	C261.593414,277.868591 264.273651,285.088501 267.184692,292.263580 
	C264.305817,292.965729 263.715179,290.673340 262.088593,290.282196 
	C260.883087,291.110901 262.316132,292.973114 260.783142,293.665619 
	C256.133972,291.532898 253.354218,282.936493 254.659515,274.064026 
z"/>
<path fill="#000000" opacity="1.000000" stroke="none" 
	d="
M165.011078,170.342590 
	C161.593216,165.648941 158.506592,160.983459 155.419861,156.318054 
	C161.053879,149.810486 165.050690,148.502106 167.098495,152.627319 
	C165.389328,153.424011 162.813156,151.973114 161.810715,154.271057 
	C160.984100,156.165970 162.503937,157.261734 163.746780,158.190277 
	C165.433807,158.760315 166.395126,154.700867 168.271500,157.701096 
	C170.088867,160.606949 165.807831,159.761963 166.108536,162.623611 
	C166.254639,163.304367 166.950851,165.121368 168.725708,165.286713 
	C171.632965,165.557526 171.948364,162.514664 173.273285,160.739166 
	C175.690277,164.609451 175.164703,165.233459 165.011078,170.342590 
z"/>
<path fill="#000000" opacity="1.000000" stroke="none" 
	d="
M277.046204,144.572784 
	C276.309235,142.583282 277.721344,139.960785 274.712799,139.437531 
	C272.344788,139.025681 270.972900,140.256897 270.377563,142.499207 
	C269.866486,144.424286 268.832245,144.357605 267.287689,143.046875 
	C269.799866,138.479813 272.296539,133.885880 274.855804,129.327072 
	C275.494934,128.188599 276.223419,126.881157 277.860107,127.233681 
	C279.429016,127.571609 279.740997,129.081512 279.978210,130.315491 
	C280.937653,135.306519 281.746277,140.326508 282.612366,145.345993 
	C280.492859,146.500702 278.906525,145.276337 277.046204,144.572784 
z"/>
<path fill="#000000" opacity="1.000000" stroke="none" 
	d="
M334.669678,156.661102 
	C337.313629,155.148056 339.238403,151.243576 341.982300,152.916824 
	C345.236603,154.901337 342.253387,158.334198 341.708282,161.028931 
	C341.033478,164.364975 340.449432,167.824066 338.612701,171.047989 
	C335.975433,170.057358 333.298248,169.592407 335.253632,165.930695 
	C336.085541,164.372818 335.391937,163.042740 334.054779,162.038239 
	C332.484192,160.858368 331.263885,161.706924 330.100403,162.760864 
	C329.052094,163.710480 328.123077,165.345474 326.382141,163.030350 
	C328.555389,160.354141 331.778717,158.988647 334.669678,156.661102 
z"/>
<path fill="#000000" opacity="1.000000" stroke="none" 
	d="
M239.338318,139.584732 
	C240.446625,140.024384 241.213959,140.673035 242.080841,141.134766 
	C243.517990,141.900253 245.066208,142.053864 246.056915,140.530289 
	C247.211288,138.755051 245.829437,137.820663 244.491180,137.027618 
	C243.210678,136.268799 241.812103,135.679413 240.624374,134.800705 
	C238.763062,133.423676 237.788498,131.474167 238.330215,129.155655 
	C238.982269,126.364845 241.226746,125.175987 243.795929,124.792923 
	C246.131607,124.444687 248.518234,124.553467 249.765060,127.135185 
	C249.935379,127.487862 249.664780,128.053482 249.587738,128.594925 
	C247.290756,129.150436 244.912369,124.382660 243.277588,128.017334 
	C241.624680,131.692322 246.045959,131.598404 247.948853,132.917435 
	C250.568451,134.733292 252.117279,136.959702 250.727585,140.041031 
	C249.105530,143.637497 245.744995,144.100693 242.283340,143.656738 
	C240.134979,143.381210 237.673279,143.025833 239.338318,139.584732 
z"/>
<path fill="#000000" opacity="1.000000" stroke="none" 
	d="
M354.619446,180.363205 
	C358.720123,178.537064 362.487732,176.831940 366.278290,175.179474 
	C367.373260,174.702133 368.555054,174.503311 369.507599,175.494293 
	C370.514557,176.541870 369.965088,177.647491 369.447662,178.694122 
	C367.190460,183.259827 364.917603,187.817780 362.506622,192.667862 
	C360.203003,191.190048 357.327850,190.458099 359.631775,187.074905 
	C360.759796,185.418503 360.566650,184.056564 359.250366,182.636246 
	C357.658966,180.919052 356.243286,181.901642 354.880463,182.865479 
	C353.821045,183.614700 352.589417,184.224106 351.996338,182.786240 
	C351.161316,180.761749 353.200531,180.963058 354.619446,180.363205 
z"/>
<path fill="#000000" opacity="1.000000" stroke="none" 
	d="
M192.973267,153.470673 
	C191.856750,147.122269 186.245087,144.699860 182.736160,140.657516 
	C184.253677,138.701431 186.142151,138.239594 188.169586,137.991516 
	C189.831177,139.108231 190.312897,141.468399 192.659119,141.996201 
	C195.275589,140.406204 191.810608,136.338913 195.948975,134.551086 
	C196.815292,140.639297 193.437195,147.213989 199.280319,151.891174 
	C197.061981,153.646103 195.511368,155.116287 192.973267,153.470673 
z"/>
<path fill="#000000" opacity="1.000000" stroke="none" 
	d="
M167.716675,266.019592 
	C171.470840,268.860413 170.702042,272.531494 169.868561,275.795044 
	C169.024017,279.101868 164.331970,279.654358 162.240845,276.894440 
	C160.405350,274.471924 160.189880,271.622101 161.204529,268.843018 
	C162.226288,266.044434 164.574265,265.428528 167.716675,266.019592 
z"/>
<path fill="#000000" opacity="1.000000" stroke="none" 
	d="
M240.516113,372.400513 
	C240.755783,375.622284 240.384369,378.411133 237.100677,379.048523 
	C235.194870,379.418427 232.113144,380.513428 231.422836,377.836914 
	C230.701355,375.039520 229.393723,370.994263 232.498657,369.188690 
	C235.225937,367.602753 238.749115,368.324158 240.516113,372.400513 
z"/>
<path fill="#000000" opacity="1.000000" stroke="none" 
	d="
M174.748566,371.040161 
	C175.446945,369.557281 176.127365,368.477966 177.827255,368.808167 
	C179.768417,369.185242 179.252991,370.735565 179.306488,371.978302 
	C179.356354,373.137085 179.386490,374.307373 179.281754,375.459564 
	C179.146423,376.948212 180.041412,379.137329 177.361160,379.210693 
	C174.839218,379.279785 175.505569,376.985504 175.018433,375.165283 
	C173.297501,376.275208 174.192200,379.688354 171.364243,379.080933 
	C169.292862,378.636017 169.633453,376.783264 169.756790,375.425598 
	C169.954971,373.244354 168.402084,370.511353 170.803375,368.986908 
	C172.771408,367.737518 173.438904,370.166626 174.748566,371.040161 
z"/>
<path fill="#000000" opacity="1.000000" stroke="none" 
	d="
M329.627808,368.843994 
	C331.457184,369.748322 332.631226,370.938721 331.795471,372.549652 
	C330.618195,374.819000 332.161407,376.712067 332.281189,379.105774 
	C329.481598,379.105774 326.802429,379.105774 323.853821,379.105774 
	C323.853821,375.715485 323.853821,372.625153 323.853821,369.587189 
	C325.583771,368.183502 327.450775,368.752838 329.627808,368.843994 
z"/>
<path fill="#000000" opacity="1.000000" stroke="none" 
	d="
M218.802521,368.746307 
	C222.029999,368.931061 223.896988,370.127197 222.791489,373.150665 
	C222.016632,375.269775 223.832535,376.936249 223.031601,379.735291 
	C221.030365,375.664673 215.699097,382.951538 214.955078,376.661560 
	C214.647614,374.062164 212.282471,369.167969 218.802521,368.746307 
z"/>
<path fill="#000000" opacity="1.000000" stroke="none" 
	d="
M254.904144,379.418640 
	C253.223160,379.561432 252.420853,376.095123 250.307709,379.038788 
	C249.467041,380.209869 247.615707,378.932922 247.639511,376.920074 
	C247.668640,374.456055 247.646454,371.991394 247.646454,369.650421 
	C254.363251,367.620941 255.442978,368.302185 255.199738,374.663483 
	C255.138901,376.254211 257.770844,377.879761 254.904144,379.418640 
z"/>
<path fill="#000000" opacity="1.000000" stroke="none" 
	d="
M314.613220,375.033051 
	C311.340546,378.544769 317.702545,375.939667 315.780487,379.008057 
	C314.023407,380.317322 310.933746,380.289032 309.216461,378.628021 
	C306.970856,376.455902 307.420532,372.697144 308.765503,370.185120 
	C310.274445,367.366730 313.316895,368.771057 315.822968,369.300476 
	C316.162384,371.456177 315.280975,373.107635 314.613220,375.033051 
z"/>
<path fill="#000000" opacity="1.000000" stroke="none" 
	d="
M351.082611,276.274109 
	C347.677429,280.329010 344.702423,276.625488 342.638245,275.485870 
	C339.762665,273.898315 343.184265,271.989410 344.201111,270.393372 
	C345.387451,268.531250 346.197235,266.060730 349.755981,266.133514 
	C350.268555,269.387543 350.787384,272.681427 351.082611,276.274109 
z"/>
<path fill="#000000" opacity="1.000000" stroke="none" 
	d="
M335.398499,269.354187 
	C334.145020,269.081879 332.961029,269.300415 332.693329,267.984070 
	C332.488647,266.977478 333.237518,266.408813 334.021027,266.152863 
	C335.965424,265.517761 337.962189,265.271881 339.665253,266.753235 
	C341.298950,268.174225 341.490112,270.109253 340.269653,271.681274 
	C338.523590,273.930328 338.966003,275.659088 341.392395,277.379333 
	C338.312042,278.807678 335.823395,278.613342 333.408691,277.728790 
	C331.689301,274.113556 338.263855,273.141205 335.398499,269.354187 
z"/>
<path fill="#000000" opacity="1.000000" stroke="none" 
	d="
M301.088562,377.502655 
	C298.915039,380.297913 296.675446,380.606018 294.305054,378.865173 
	C293.749664,376.774963 295.653503,377.552307 296.048920,376.730896 
	C296.156311,375.551270 295.086700,375.079987 294.558807,374.288849 
	C293.535522,372.755310 293.266907,371.163696 294.447144,369.669342 
	C295.592804,368.218842 297.204102,367.930725 298.962646,368.426819 
	C301.127594,369.037506 301.146881,370.442902 300.682373,372.332031 
	C300.289764,373.928650 301.874115,375.454315 301.088562,377.502655 
z"/>
<path fill="#000000" opacity="1.000000" stroke="none" 
	d="
M159.083984,272.465149 
	C156.521729,274.770538 159.562057,275.727478 159.952652,277.497772 
	C157.393768,278.861084 154.906555,278.542267 152.331787,277.785217 
	C151.137924,273.906311 156.424805,273.018585 155.954483,269.614319 
	C154.949448,268.008911 152.951782,269.996704 151.733383,268.093414 
	C152.556915,264.851624 155.387787,265.345398 157.489517,266.040863 
	C160.514984,267.041962 160.609283,269.549225 159.083984,272.465149 
z"/>
<path fill="#000000" opacity="1.000000" stroke="none" 
	d="
M279.590027,369.766113 
	C281.919098,367.803040 283.957123,367.638123 285.846375,369.447479 
	C286.609955,371.031250 282.879761,371.774841 285.594116,373.738708 
	C287.380737,375.031372 286.991974,377.531128 285.117462,378.884369 
	C282.941376,380.455383 280.622711,380.597870 278.883362,378.325195 
	C279.292725,375.608093 281.392731,378.248199 282.085785,376.724091 
	C280.868835,374.665009 277.593201,373.371582 279.590027,369.766113 
z"/>
<path fill="#000000" opacity="1.000000" stroke="none" 
	d="
M270.057312,373.570068 
	C267.953278,375.967255 268.234680,377.511200 271.746460,378.436340 
	C268.840088,379.082489 265.994995,380.464783 264.440674,378.176575 
	C262.889679,375.893188 262.996216,372.435669 264.246460,370.051147 
	C265.603577,367.462799 268.562897,368.867645 270.674561,369.007233 
	C272.165741,370.945435 268.072174,371.467682 270.057312,373.570068 
z"/>
<path fill="#000000" opacity="1.000000" stroke="none" 
	d="
M190.906952,377.097412 
	C189.145584,376.902435 189.086624,379.278534 186.992081,378.787750 
	C187.687500,375.157867 188.713318,371.771637 191.086594,368.294556 
	C194.488297,371.313873 194.884048,374.907898 195.729248,378.294434 
	C193.507095,380.301727 192.418533,378.485077 190.906952,377.097412 
z"/>
<path fill="#000000" opacity="1.000000" stroke="none" 
	d="
M205.837357,368.839355 
	C208.580215,371.495697 206.906311,374.534668 207.067123,377.366974 
	C207.130783,378.488251 206.288559,379.166901 205.107574,379.117188 
	C203.812973,379.062714 203.225754,378.064941 203.593567,377.085236 
	C204.605972,374.388458 201.469864,370.759521 205.837357,368.839355 
z"/>
</svg>